<svg width="170" height="186" viewBox="0 0 170 186" fill="none" xmlns="http://www.w3.org/2000/svg">
<path d="M0.0240285 102.302C0.0241243 94.036 -0.0129708 86.1576 0.0337806 78.2798C0.0915063 68.553 6.57412 62.0842 16.2944 62.0109C21.0368 61.9751 25.7796 62.0047 30.9269 62.0047C30.9269 60.6863 30.9269 59.5721 30.9269 58.4578C30.9269 44.6388 30.9123 30.8198 30.9316 17.0008C30.9466 6.28828 37.2526 0.0208748 48.0292 0.0160812C76.3565 0.0034812 104.684 -0.0450211 133.01 0.124893C135.164 0.13781 137.822 1.22288 139.372 2.71996C148.828 11.8578 158.118 21.1759 167.235 30.6552C168.734 32.2139 169.873 34.8641 169.88 37.0144C170.031 81.0539 170.003 125.094 169.986 169.134C169.983 179.621 163.619 185.982 153.144 185.987C117.993 186.004 82.8411 186.005 47.6896 185.986C37.2621 185.981 30.9643 179.577 30.9286 169.046C30.9177 165.825 30.9269 162.605 30.9269 158.87C27.6746 158.87 24.5155 158.904 21.3573 158.864C9.2059 158.708 0.13949 149.708 0.0460833 137.559C-0.0432785 125.936 0.0250236 114.312 0.0240285 102.302ZM38.6562 16.9208C38.6562 39.6081 38.6562 62.2955 38.6562 85.2519C40.3866 85.2519 41.7734 85.252 43.1601 85.252C74.0601 85.252 104.96 85.2404 135.86 85.259C145.225 85.2647 150.659 90.7657 150.673 100.217C150.695 114.551 150.685 128.886 150.677 143.22C150.671 153.673 145.467 158.868 134.994 158.87C104.351 158.875 73.709 158.871 43.0665 158.871C41.6881 158.871 40.3096 158.871 38.6562 158.871C38.6562 162.27 38.6515 165.34 38.6571 168.409C38.6701 175.576 41.2939 178.237 48.3954 178.238C83.0291 178.244 117.663 178.243 152.296 178.239C159.749 178.238 162.262 175.72 162.262 168.247C162.266 126.276 162.264 84.3061 162.264 42.3359C162.264 41.219 162.264 40.1021 162.264 38.7605C153.405 38.7605 144.932 38.7122 136.46 38.7834C132.889 38.8133 131.215 37.2229 131.351 33.6407C131.414 31.9643 131.361 30.2835 131.361 28.6047C131.361 21.691 131.361 14.7773 131.361 7.76702C102.796 7.76702 74.7371 7.73782 46.6786 7.79422C41.6894 7.80424 39.0891 10.707 38.6562 16.9208ZM7.75332 111.988C7.7534 120.121 7.73686 128.255 7.75795 136.388C7.78211 145.703 13.101 151.107 22.3264 151.111C59.9099 151.129 97.4934 151.122 135.077 151.116C141.072 151.114 142.941 149.257 142.946 143.299C142.958 129.227 142.955 115.155 142.947 101.083C142.944 94.8249 141.149 93.0084 134.95 93.0071C104.574 93.001 74.1987 93.0393 43.823 92.9869C31.8522 92.9662 19.8816 92.7507 7.75332 92.6222C7.75332 98.3155 7.75332 104.764 7.75332 111.988ZM20.5446 69.756C18.6239 69.7664 16.6895 69.6335 14.7853 69.8169C10.7002 70.2104 7.70248 73.6283 7.7629 77.6175C7.82097 81.4508 10.7182 84.9404 14.629 85.1364C19.9496 85.403 25.2935 85.2028 30.6892 85.2028C30.6892 79.8806 30.6892 74.951 30.6892 69.756C27.4037 69.756 24.3516 69.756 20.5446 69.756ZM147.193 31.0078C150.091 31.0078 152.989 31.0078 154.826 31.0078C149.657 25.8343 144.163 20.3354 139.318 15.4868C139.318 19.8434 139.318 25.3352 139.318 31.0078C141.842 31.0078 144.14 31.0078 147.193 31.0078Z" fill="#010101"/>
<path d="M38.6563 16.5697C39.0891 10.7083 41.6894 7.80517 46.6786 7.79514C74.7371 7.73874 102.796 7.76794 131.361 7.76794C131.361 14.779 131.361 21.6936 131.362 28.6081C131.362 30.2871 131.414 31.9681 131.351 33.6447C131.215 37.2273 132.889 38.8179 136.46 38.788C144.932 38.7168 153.405 38.7651 162.264 38.7651C162.264 40.1068 162.264 41.2239 162.264 42.3409C162.264 84.3161 162.266 126.291 162.263 168.267C162.262 175.741 159.749 178.26 152.296 178.26C117.663 178.264 83.0291 178.265 48.3954 178.26C41.294 178.258 38.6701 175.597 38.6571 168.429C38.6515 165.359 38.6562 162.29 38.6562 158.89C40.3096 158.89 41.6881 158.89 43.0665 158.89C73.709 158.89 104.351 158.894 134.994 158.889C145.467 158.887 150.672 153.691 150.677 143.237C150.685 128.901 150.695 114.565 150.673 100.229C150.659 90.7765 145.225 85.2748 135.86 85.2692C104.96 85.2506 74.0601 85.2621 43.1601 85.2621C41.7734 85.2621 40.3866 85.2621 38.6562 85.2621C38.6562 62.3029 38.6562 39.6128 38.6563 16.5697ZM83.85 50.3902C94.006 50.3902 104.162 50.3573 114.318 50.411C117.202 50.4263 119.713 49.8155 119.67 46.4178C119.63 43.2843 117.271 42.6118 114.513 42.6171C94.8435 42.655 75.1741 42.6549 55.5049 42.6171C52.7488 42.6118 50.3874 43.2769 50.3464 46.4146C50.3018 49.8144 52.8109 50.4285 55.6948 50.4108C64.822 50.3549 73.9498 50.3902 83.85 50.3902ZM102.391 65.8902C106.376 65.8902 110.363 65.8342 114.347 65.9088C117.242 65.963 119.735 65.2834 119.67 61.8892C119.61 58.7549 117.234 58.0967 114.484 58.116C106.128 58.1748 97.7712 58.1372 89.415 58.1372C78.1019 58.1372 66.7888 58.1198 55.4758 58.1475C51.8683 58.1563 49.7086 60.0689 50.3431 62.7075C51.0215 65.529 53.1985 65.9222 55.7239 65.9142C71.0221 65.8659 86.3205 65.8902 102.391 65.8902ZM83.5471 27.1357C74.0347 27.1358 64.5223 27.1513 55.01 27.1264C52.3182 27.1194 50.3276 28.1422 50.3334 31.0194C50.3392 33.8955 52.3375 34.9081 55.0252 34.9011C64.666 34.876 74.3071 34.8676 83.9479 34.9068C86.6078 34.9176 88.6784 34.0329 88.7793 31.1575C88.8796 28.2965 86.9609 27.1136 83.5471 27.1357Z" fill="#FEF5F5"/>
<path d="M7.75322 111.614C7.75322 104.777 7.75322 98.3272 7.75322 92.6331C19.8815 92.7617 31.8521 92.9773 43.823 92.9979C74.1986 93.0503 104.574 93.0121 134.95 93.0182C141.149 93.0194 142.944 94.8361 142.947 101.095C142.955 115.169 142.958 129.243 142.946 143.316C142.941 149.274 141.071 151.132 135.077 151.133C97.4933 151.14 59.9098 151.147 22.3263 151.129C13.1009 151.125 7.78201 145.72 7.75786 136.404C7.73676 128.27 7.75331 120.135 7.75322 111.614ZM96.5937 125.951C96.5965 130.339 96.5599 134.727 96.6171 139.114C96.6507 141.696 98.0912 143.698 100.579 143.156C102.043 142.837 103.719 140.745 104.163 139.135C104.776 136.913 104.317 134.394 104.317 131.294C110.033 135.1 115.158 138.457 120.222 141.905C122.624 143.541 124.994 144.37 126.844 141.43C128.605 138.63 126.72 136.9 124.533 135.434C121.045 133.097 117.57 130.742 113.743 128.161C114.671 127.982 115.046 127.91 115.42 127.838C123.34 126.319 128.205 120.276 127.446 112.899C126.712 105.752 120.831 100.814 112.962 100.764C109.36 100.741 105.758 100.737 102.156 100.766C97.7973 100.801 96.6272 101.927 96.6031 106.205C96.5675 112.529 96.5937 118.852 96.5937 125.951ZM81.1428 138.094C81.0161 141.054 81.9452 143.47 85.3025 143.269C88.4164 143.082 88.9212 140.59 88.8962 137.88C88.8271 130.4 89.0365 122.913 88.8065 115.438C88.5572 107.338 81.766 100.909 73.7388 100.766C65.6711 100.623 58.4691 106.782 58.0966 114.803C57.72 122.912 57.8105 131.058 58.1415 139.17C58.2003 140.61 60.2457 142.835 61.7093 143.156C64.1961 143.7 65.6122 141.699 65.6763 139.119C65.7357 136.725 65.6889 134.329 65.6889 132.067C71.175 132.067 76.1099 132.067 81.1426 132.067C81.1426 134.042 81.1426 135.717 81.1428 138.094ZM42.8582 108.515C43.6302 108.515 44.4029 108.494 45.1742 108.518C47.9853 108.606 50.1998 107.641 50.134 104.509C50.0735 101.624 47.9599 100.734 45.3027 100.75C38.2261 100.79 31.1491 100.774 24.0723 100.758C21.3744 100.752 19.3887 101.831 19.4429 104.712C19.4971 107.599 21.5608 108.57 24.2273 108.522C26.3713 108.483 28.5166 108.514 30.9269 108.514C30.9269 109.83 30.9269 110.708 30.9269 111.586C30.9275 120.621 30.9327 129.656 30.926 138.691C30.9239 141.41 32.0538 143.348 34.9204 143.285C37.558 143.227 38.6585 141.365 38.654 138.816C38.6502 136.622 38.6558 134.428 38.6559 132.233C38.6562 124.407 38.656 116.581 38.656 108.515C40.1266 108.515 41.1346 108.515 42.8582 108.515Z" fill="#73DF60"/>
<path d="M20.922 69.7642C24.3516 69.7642 27.4037 69.7642 30.6893 69.7642C30.6893 74.9599 30.6893 79.8901 30.6893 85.2129C25.2935 85.2129 19.9496 85.4131 14.629 85.1465C10.7182 84.9505 7.82099 81.4605 7.76292 77.6267C7.7025 73.6371 10.7003 70.2188 14.7853 69.8252C16.6895 69.6417 18.6239 69.7747 20.922 69.7642Z" fill="#53C776"/>
<path d="M146.815 31.0114C144.139 31.0114 141.841 31.0114 139.318 31.0114C139.318 25.3382 139.318 19.8458 139.318 15.4886C144.163 20.3378 149.657 25.8373 154.826 31.0114C152.989 31.0114 150.091 31.0114 146.815 31.0114Z" fill="#D2CBE4"/>
<path d="M83.4638 50.3902C73.95 50.3902 64.8222 50.3549 55.6949 50.4108C52.8111 50.4285 50.302 49.8144 50.3465 46.4146C50.3876 43.2769 52.749 42.6118 55.5051 42.6171C75.1743 42.6549 94.8436 42.655 114.513 42.6171C117.271 42.6118 119.631 43.2843 119.67 46.4178C119.713 49.8155 117.202 50.4263 114.318 50.411C104.162 50.3573 94.0062 50.3902 83.4638 50.3902Z" fill="#010101"/>
<path d="M102.005 65.8902C86.3205 65.8901 71.0221 65.8659 55.7239 65.9142C53.1986 65.9222 51.0216 65.529 50.3431 62.7075C49.7087 60.0689 51.8683 58.1563 55.4758 58.1475C66.7888 58.1198 78.1019 58.1372 89.415 58.1372C97.7713 58.1372 106.128 58.1748 114.484 58.116C117.234 58.0967 119.61 58.7548 119.67 61.8892C119.735 65.2833 117.242 65.963 114.347 65.9088C110.363 65.8342 106.377 65.8901 102.005 65.8902Z" fill="#010101"/>
<path d="M83.8945 27.136C86.961 27.1136 88.8798 28.2965 88.7794 31.1575C88.6785 34.0329 86.6079 34.9176 83.948 34.9068C74.3072 34.8676 64.6662 34.876 55.0253 34.9011C52.3376 34.9081 50.3393 33.8955 50.3335 31.0194C50.3277 28.1422 52.3183 27.1194 55.0101 27.1264C64.5224 27.1513 74.0348 27.1358 83.8945 27.136Z" fill="#020202"/>
<path d="M96.5936 125.563C96.5937 118.852 96.5674 112.529 96.603 106.205C96.6271 101.927 97.7973 100.801 102.156 100.766C105.758 100.737 109.36 100.741 112.962 100.764C120.831 100.814 126.712 105.752 127.446 112.899C128.205 120.276 123.34 126.319 115.42 127.838C115.046 127.91 114.671 127.982 113.743 128.161C117.57 130.742 121.045 133.097 124.533 135.434C126.72 136.9 128.605 138.63 126.843 141.43C124.994 144.37 122.624 143.541 120.222 141.905C115.158 138.457 110.033 135.1 104.317 131.294C104.317 134.394 104.776 136.913 104.163 139.135C103.719 140.745 102.043 142.837 100.579 143.156C98.0912 143.698 96.6507 141.696 96.617 139.114C96.5598 134.727 96.5964 130.339 96.5936 125.563ZM104.95 108.618C104.667 112.343 104.385 116.069 104.078 120.127C107.772 120.127 110.823 120.233 113.863 120.099C117.372 119.943 119.791 117.441 119.758 114.265C119.725 111.088 117.295 108.694 113.746 108.545C111.061 108.432 108.368 108.527 104.95 108.618Z" fill="#010301"/>
<path d="M81.1429 137.743C81.1427 135.717 81.1427 134.042 81.1427 132.067C76.11 132.067 71.1752 132.067 65.6891 132.067C65.6891 134.329 65.7358 136.725 65.6764 139.119C65.6123 141.699 64.1962 143.7 61.7094 143.156C60.2458 142.835 58.2004 140.61 58.1417 139.17C57.8106 131.058 57.7202 122.912 58.0967 114.803C58.4692 106.782 65.6712 100.623 73.7389 100.766C81.7662 100.909 88.5573 107.338 88.8066 115.438C89.0366 122.913 88.8272 130.4 88.8963 137.88C88.9213 140.59 88.4165 143.082 85.3027 143.269C81.9453 143.47 81.0162 141.054 81.1429 137.743ZM79.4747 111.491C76.9851 108.75 74.0343 107.659 70.4926 109.173C66.8192 110.744 65.5452 113.756 65.6824 117.584C65.7549 119.606 65.6952 121.633 65.6952 123.809C70.9819 123.809 75.908 123.809 81.7313 123.809C81.0551 119.667 80.4299 115.836 79.4747 111.491Z" fill="#010301"/>
<path d="M42.5005 108.515C41.1347 108.515 40.1267 108.515 38.6561 108.515C38.6561 116.581 38.6563 124.407 38.656 132.233C38.6559 134.428 38.6502 136.622 38.6541 138.816C38.6586 141.365 37.5581 143.227 34.9205 143.285C32.0538 143.348 30.924 141.41 30.926 138.691C30.9328 129.656 30.9276 120.621 30.927 111.586C30.927 110.708 30.927 109.83 30.927 108.514C28.5166 108.514 26.3714 108.483 24.2274 108.522C21.5608 108.57 19.4972 107.599 19.443 104.712C19.3888 101.831 21.3744 100.752 24.0724 100.758C31.1492 100.774 38.2262 100.79 45.3027 100.75C47.9599 100.734 50.0735 101.624 50.1341 104.509C50.1999 107.641 47.9854 108.606 45.1742 108.518C44.403 108.494 43.6303 108.515 42.5005 108.515Z" fill="#010201"/>
<path d="M105.314 108.574C108.368 108.527 111.061 108.432 113.746 108.545C117.295 108.694 119.725 111.088 119.758 114.265C119.791 117.441 117.372 119.943 113.863 120.099C110.823 120.233 107.772 120.127 104.078 120.127C104.385 116.069 104.667 112.343 105.314 108.574Z" fill="#72DE5F"/>
<path d="M79.6397 111.748C80.43 115.836 81.0552 119.667 81.7314 123.809C75.9081 123.809 70.982 123.809 65.6953 123.809C65.6953 121.633 65.755 119.606 65.6825 117.584C65.5453 113.756 66.8193 110.744 70.4927 109.173C74.0344 107.659 76.9852 108.75 79.6397 111.748Z" fill="#72DE5F"/>
</svg>
