<svg width="128" height="128" viewBox="0 0 128 128" fill="none" xmlns="http://www.w3.org/2000/svg">
<g filter="url(#filter0_i_1_12)">
<rect width="128" height="128" rx="64" fill="url(#paint0_linear_1_12)"/>
</g>
<rect x="2" y="2" width="124" height="124" rx="62" stroke="#DEEFFF" stroke-width="4"/>
<path d="M52.3203 88.7969V77.8047C52.3203 77.1484 52.3438 76.4922 52.3906 75.8359C52.4531 75.1641 52.5312 74.5078 52.625 73.8672H52.3203C51.6484 74.9453 50.7188 75.8594 49.5312 76.6094C48.3594 77.3594 46.8125 77.7344 44.8906 77.7344C41.9375 77.7344 39.5469 76.5938 37.7188 74.3125C35.9062 72.0156 35 68.6484 35 64.2109C35 61.2266 35.4219 58.7266 36.2656 56.7109C37.1094 54.6797 38.2812 53.1484 39.7812 52.1172C41.2969 51.0859 43.0469 50.5703 45.0312 50.5703C46.9531 50.5703 48.5078 50.9453 49.6953 51.6953C50.8984 52.4297 51.875 53.3359 52.625 54.4141H52.8125L53.4453 51.0625H59.4922V88.7969H52.3203ZM47.4453 72.1328C48.7578 72.1328 49.7969 71.875 50.5625 71.3594C51.3438 70.8438 51.9062 70.0703 52.25 69.0391C52.5938 67.9922 52.7812 66.6875 52.8125 65.125V64.2578C52.8125 61.7109 52.4219 59.7656 51.6406 58.4219C50.8594 57.0625 49.4219 56.3828 47.3281 56.3828C45.625 56.3828 44.3594 57.0625 43.5312 58.4219C42.7031 59.7812 42.2891 61.7422 42.2891 64.3047C42.2891 66.9141 42.7109 68.875 43.5547 70.1875C44.3984 71.4844 45.6953 72.1328 47.4453 72.1328Z" fill="white"/>
<path d="M67.5312 43H78.1953C82.7578 43 86.2109 43.6406 88.5547 44.9219C90.8984 46.2031 92.0703 48.4531 92.0703 51.6719C92.0703 52.9688 91.8594 54.1406 91.4375 55.1875C91.0312 56.2344 90.4375 57.0938 89.6562 57.7656C88.875 58.4375 87.9219 58.875 86.7969 59.0781V59.3125C87.9375 59.5469 88.9688 59.9531 89.8906 60.5312C90.8125 61.0938 91.5469 61.9219 92.0938 63.0156C92.6562 64.0938 92.9375 65.5312 92.9375 67.3281C92.9375 69.4062 92.4297 71.1875 91.4141 72.6719C90.3984 74.1562 88.9453 75.2969 87.0547 76.0938C85.1797 76.875 82.9453 77.2656 80.3516 77.2656H67.5312V43ZM74.7969 56.5703H79.0156C81.125 56.5703 82.5859 56.2422 83.3984 55.5859C84.2109 54.9141 84.6172 53.9297 84.6172 52.6328C84.6172 51.3203 84.1328 50.3828 83.1641 49.8203C82.2109 49.2422 80.6953 48.9531 78.6172 48.9531H74.7969V56.5703ZM74.7969 62.3359V71.2656H79.5312C81.7188 71.2656 83.2422 70.8438 84.1016 70C84.9609 69.1562 85.3906 68.0234 85.3906 66.6016C85.3906 65.7578 85.2031 65.0156 84.8281 64.375C84.4531 63.7344 83.8203 63.2344 82.9297 62.875C82.0547 62.5156 80.8438 62.3359 79.2969 62.3359H74.7969Z" fill="white"/>
<defs>
<filter id="filter0_i_1_12" x="0" y="0" width="129" height="129" filterUnits="userSpaceOnUse" color-interpolation-filters="sRGB">
<feFlood flood-opacity="0" result="BackgroundImageFix"/>
<feBlend mode="normal" in="SourceGraphic" in2="BackgroundImageFix" result="shape"/>
<feColorMatrix in="SourceAlpha" type="matrix" values="0 0 0 0 0 0 0 0 0 0 0 0 0 0 0 0 0 0 127 0" result="hardAlpha"/>
<feOffset dx="1" dy="1"/>
<feGaussianBlur stdDeviation="2.5"/>
<feComposite in2="hardAlpha" operator="arithmetic" k2="-1" k3="1"/>
<feColorMatrix type="matrix" values="0 0 0 0 0 0 0 0 0 0 0 0 0 0 0 0 0 0 1 0"/>
<feBlend mode="normal" in2="shape" result="effect1_innerShadow_1_12"/>
</filter>
<linearGradient id="paint0_linear_1_12" x1="64" y1="0" x2="64" y2="128" gradientUnits="userSpaceOnUse">
<stop stop-color="#7CAFF0"/>
<stop offset="1" stop-color="#456FBE"/>
</linearGradient>
</defs>
</svg>
